# xmcd
#
# Track frame offsets: 
#        150
#        14205
#        25840
#
# Disc length: 549 seconds
#
# Revision: 0
# Processed by: cddbd v1.5.1PL0 Copyright (c) Steve Scherf et al.
# Submitted via: ExactAudioCopy v0.95a5
#
DISCID=1f022303
DTITLE=iNsuRge - Time Bomb
DYEAR=1996
DGENRE=Rock
TTITLE0=Time Bomb
TTITLE1=Redneck [JJJ Live]
TTITLE2=Time Bomb [The Launay Remix]
EXTD=
EXTT0=
EXTT1=
EXTT2=
PLAYORDER=
